# xmcd
# 
# Track frame offsets:
#     183
#     19695
#     46290
# 
# Disc length: 935
# 
# Revision: 1
# Processed by: cddbd v1.5.2PL0 Copyright (c) Steve Scherf et al.
# Submitted via: fre:ac v1.0.31
# 
DISCID=1a03a503
DTITLE=TLC - Baby - Baby - Baby
DYEAR=1992
DGENRE=R&B
TTITLE0=Baby - Baby - Baby (Album Radio Edit)
TTITLE1=Ain't 2 Proud 2 Beg (Smoothed Down Extended Remix)
TTITLE2=Baby - Baby - Baby (Full Length)
EXTD=
EXTT0=
EXTT1=
EXTT2=
PLAYORDER=
